<svg xmlns="http://www.w3.org/2000/svg" width="640" height="640" viewBox="0 0 640 640">
  <defs>
    <filter id="fine" x="-10%" y="-10%" width="120%" height="120%">
      <feTurbulence type="fractalNoise" baseFrequency="0.035 0.18" numOctaves="3" seed="73" stitchTiles="stitch"/>
      <feColorMatrix type="saturate" values="0"/>
      <feComponentTransfer>
        <feFuncA type="table" tableValues="0 0.18"/>
      </feComponentTransfer>
    </filter>
  </defs>

  <!-- subtle light-grey fine wood grain overlay -->
  <rect width="640" height="640" fill="transparent"/>
  <rect width="640" height="640" filter="url(#fine)" opacity="0.22"/>

  <g fill="none" stroke-linecap="round" stroke-linejoin="round">
    <path d="M18 -20 C52 54 26 122 54 198 C88 290 22 382 58 472 C88 548 42 606 64 674" stroke="#d7d7d7" stroke-opacity="0.32" stroke-width="5"/>
    <path d="M62 -20 C88 64 58 128 84 212 C116 316 66 406 98 516 C122 596 90 626 104 674" stroke="#f4f4f4" stroke-opacity="0.24" stroke-width="2"/>
    <path d="M134 -20 C106 66 154 138 124 226 C92 318 160 420 128 526 C104 596 136 632 122 674" stroke="#cfcfcf" stroke-opacity="0.25" stroke-width="6"/>
    <path d="M194 -20 C232 80 176 158 214 248 C254 342 190 438 230 532 C262 608 222 638 244 674" stroke="#e2e2e2" stroke-opacity="0.28" stroke-width="4"/>
    <path d="M252 -20 C226 72 282 150 250 240 C216 338 292 444 256 548 C232 612 264 642 250 674" stroke="#f7f7f7" stroke-opacity="0.18" stroke-width="3"/>
    <path d="M330 -20 C372 86 306 164 350 258 C390 344 326 450 366 548 C398 624 354 650 376 674" stroke="#d5d5d5" stroke-opacity="0.30" stroke-width="6"/>
    <path d="M404 -20 C374 64 428 136 392 226 C352 330 440 422 402 520 C370 606 410 646 392 674" stroke="#eeeeee" stroke-opacity="0.20" stroke-width="3"/>
    <path d="M480 -20 C514 78 452 154 492 266 C528 366 464 456 504 560 C532 630 500 654 518 674" stroke="#d1d1d1" stroke-opacity="0.24" stroke-width="7"/>
    <path d="M560 -20 C528 70 590 148 552 238 C510 336 598 448 558 546 C526 624 570 648 552 674" stroke="#e6e6e6" stroke-opacity="0.26" stroke-width="4"/>
    <path d="M618 -20 C648 80 592 160 626 270 C660 372 600 470 632 572 C652 632 630 656 642 674" stroke="#fafafa" stroke-opacity="0.18" stroke-width="2"/>
  </g>

  <g fill="none" stroke-linecap="round">
    <ellipse cx="338" cy="248" rx="36" ry="122" stroke="#d8d8d8" stroke-opacity="0.20" stroke-width="5" transform="rotate(5 338 248)"/>
    <ellipse cx="338" cy="248" rx="15" ry="70" stroke="#f6f6f6" stroke-opacity="0.18" stroke-width="3" transform="rotate(5 338 248)"/>
    <ellipse cx="116" cy="512" rx="28" ry="102" stroke="#dcdcdc" stroke-opacity="0.18" stroke-width="4" transform="rotate(-8 116 512)"/>
  </g>
</svg>
